<?xml version="1.0" encoding="UTF-8"?>
<svg fill="none" viewBox="0 0 100 100" xmlns="http://www.w3.org/2000/svg">
    <path d="M0 22.349c15.826 5.862 31.652 11.727 47.48 17.589v11.957c-10.425-3.862-20.854-7.724-31.28-11.59V52.18l30.164 11.176v11.957L16.2 64.137v12.041l32.026 11.865V100L.003 82.134V22.349H0ZM100 22.349C84.174 28.21 68.348 34.076 52.519 39.938v11.957c10.426-3.862 20.855-7.724 31.28-11.59V52.18L53.635 63.355v11.957L83.8 64.137v12.041L51.773 88.043V100c16.075-5.955 32.15-11.91 48.223-17.866V22.349H100ZM50.176 37.05 1.953 19.184 50.176 0l48.226 19.184L50.176 37.05Z" fill="currentColor"/>
</svg>
